<svg xmlns="http://www.w3.org/2000/svg" width="96" height="96" viewBox="0 0 96 96"><path fill="purple" d="M42.245 59.59h11.51a1.7 1.7 0 0 0 0-3.4h-11.51a1.7 1.7 0 0 0 0 3.4zm0-5.928h11.51a1.701 1.701 0 0 0 0-3.4h-11.51a1.7 1.7 0 0 0 0 3.4zm24.694 5.929c3.857 0 6.994-3.14 6.994-6.995a7.001 7.001 0 0 0-6.995-6.993 7.001 7.001 0 0 0-6.993 6.993c0 3.856 3.137 6.995 6.994 6.995zm0-10.589a3.597 3.597 0 0 1 3.594 3.594 3.598 3.598 0 0 1-3.595 3.595 3.598 3.598 0 0 1-3.593-3.595 3.597 3.597 0 0 1 3.594-3.593zM29.062 59.59c3.857 0 6.994-3.139 6.994-6.994a7.001 7.001 0 0 0-6.994-6.993c-3.855 0-6.994 3.136-6.994 6.993 0 3.856 3.139 6.995 6.994 6.995zm0-10.588a3.597 3.597 0 0 1 3.594 3.594 3.598 3.598 0 0 1-3.594 3.595 3.598 3.598 0 0 1-3.594-3.595 3.597 3.597 0 0 1 3.594-3.593zM24.767 66.02v3.727a6.59 6.59 0 0 0 6.582 6.583 6.59 6.59 0 0 0 6.584-6.583v-3.18h20.135v3.18a6.59 6.59 0 0 0 6.582 6.583 6.59 6.59 0 0 0 6.583-6.583V66.02c5.88-1.675 10.2-7.08 10.2-13.489v-2.418c0-4.082-2.319-7.68-5.58-10.215a5.791 5.791 0 0 0 4.037-5.51 5.786 5.786 0 0 0-5.78-5.778h-5.405c-3.344-5.35-9.191-8.938-14.342-8.938H41.906c-5.15 0-10.998 3.588-14.344 8.938h-5.668a5.784 5.784 0 0 0-5.78 5.779 5.787 5.787 0 0 0 4.036 5.508c-3.264 2.537-5.582 6.135-5.582 10.217v2.418c0 6.408 4.32 11.815 10.199 13.488zm9.766 3.727a3.185 3.185 0 0 1-3.185 3.183 3.185 3.185 0 0 1-3.182-3.183v-3.202c.146.01.29.022.438.022h5.928zm33.3 0a3.185 3.185 0 0 1-3.183 3.183 3.185 3.185 0 0 1-3.183-3.183v-3.18h5.93c.147 0 .29-.018.437-.023zm6.278-37.735a2.38 2.38 0 0 1 0 4.757h-2.722a16.746 16.746 0 0 0-1.005-4.758zm-32.206-8.939h12.458c5.78 0 12.764 5.977 13.6 13.258a15.107 15.107 0 0 0-2.658-.251H30.697c-.785 0-1.586.081-2.39.212.859-7.263 7.827-13.218 13.599-13.218zM19.516 34.39a2.38 2.38 0 0 1 2.379-2.379h3.988a16.78 16.78 0 0 0-1.006 4.759h-2.982a2.383 2.383 0 0 1-2.38-2.38zm-1.547 15.724c0-5.89 6.963-10.634 12.729-10.634h34.607c5.765 0 12.728 4.744 12.728 10.635v2.418c0 5.863-4.77 10.635-10.634 10.635H28.603c-5.865 0-10.637-4.772-10.637-10.636z"/></svg>
