<svg xmlns="http://www.w3.org/2000/svg" width="96" height="96" viewBox="0 0 96 96"><path fill="purple"  d="M19.195 15.29a1.55 1.55 0 0 0-1.551 1.55v60.77h-3.066c-2.008 0-1.965 3.1 0 3.1h66.935c1.845 0 1.886-3.1 0-3.1h-3.066V16.84a1.55 1.55 0 0 0-1.55-1.55zm1.549 3.102h54.603V77.61h-16.52V65.311a1.55 1.55 0 0 0-1.548-1.55H38.814a1.55 1.55 0 0 0-1.55 1.55v12.3h-16.52zm5.375 2.67a1.55 1.55 0 0 0-1.551 1.548v6.926c0 .856.695 1.55 1.55 1.549h9.233a1.55 1.55 0 0 0 1.55-1.549V22.61a1.55 1.55 0 0 0-1.55-1.548zm17.31 0a1.55 1.55 0 0 0-1.549 1.548v6.926a1.55 1.55 0 0 0 1.55 1.549h9.232a1.55 1.55 0 0 0 1.55-1.549V22.61a1.55 1.55 0 0 0-1.55-1.548zm17.31 0a1.55 1.55 0 0 0-1.548 1.548v6.926a1.55 1.55 0 0 0 1.549 1.549h9.232a1.55 1.55 0 0 0 1.55-1.549V22.61a1.55 1.55 0 0 0-1.55-1.548zm-33.07 3.1H33.8v3.823h-6.13zm17.311 0h6.133v3.823H44.98zm17.31 0h6.133v3.823h-6.132zM26.12 33.754a1.55 1.55 0 0 0-1.551 1.55v6.925a1.55 1.55 0 0 0 1.55 1.55h9.233a1.55 1.55 0 0 0 1.55-1.55v-6.924a1.55 1.55 0 0 0-1.55-1.551zm17.31 0a1.55 1.55 0 0 0-1.549 1.55v6.925c0 .855.693 1.55 1.55 1.55h9.232a1.55 1.55 0 0 0 1.55-1.55v-6.924a1.55 1.55 0 0 0-1.55-1.551zm17.31 0a1.55 1.55 0 0 0-1.548 1.55v6.925c0 .855.693 1.55 1.549 1.55h9.232a1.55 1.55 0 0 0 1.55-1.55v-6.924a1.55 1.55 0 0 0-1.55-1.551zm-33.07 3.101H33.8v3.825h-6.13zm17.311 0h6.133v3.825H44.98zm17.31 0h6.133v3.825h-6.132zM26.12 46.45a1.55 1.55 0 0 0-1.551 1.551v6.924a1.55 1.55 0 0 0 1.55 1.55h9.233a1.55 1.55 0 0 0 1.55-1.55V48a1.55 1.55 0 0 0-1.55-1.55zm17.31 0a1.55 1.55 0 0 0-1.549 1.551v6.924c0 .856.693 1.55 1.55 1.55h9.232a1.55 1.55 0 0 0 1.55-1.55V48a1.55 1.55 0 0 0-1.55-1.55zm17.31 0a1.55 1.55 0 0 0-1.548 1.551v6.924c0 .856.693 1.55 1.549 1.55h9.232a1.55 1.55 0 0 0 1.55-1.55V48a1.55 1.55 0 0 0-1.55-1.55zm-33.07 3.1H33.8v3.824h-6.13zm17.311 0h6.133v3.824H44.98zm17.31 0h6.133v3.824h-6.132zm-21.17 9.596c-2.114-.049-2.114 3.147 0 3.1h13.85c2.114.047 2.114-3.149 0-3.1zm-.757 7.714h6.133v10.75h-6.133zm9.232 0h6.133v10.75h-6.133z"/></svg>
