<svg xmlns="http://www.w3.org/2000/svg" width="96" height="96" viewBox="0 0 96 96"><path fill="purple"  d="M61.574 39.888c-.993 0-1.655.663-1.655 1.656v2.649c0 .993.662 1.655 1.655 1.655.994 0 1.656-.662 1.656-1.655v-2.65c0-.992-.662-1.655-1.656-1.655zm-8.939 0c-.993 0-1.655.663-1.655 1.656v2.649c0 .993.662 1.655 1.655 1.655s1.656-.662 1.656-1.655v-2.65c0-.992-.663-1.655-1.656-1.655zm-8.94 0c-.992 0-1.654.663-1.654 1.656v2.649c0 .993.662 1.655 1.655 1.655s1.655-.662 1.655-1.655v-2.65c0-.992-.827-1.655-1.655-1.655zm-9.104 0c-.993 0-1.655.663-1.655 1.656v2.649c0 .993.662 1.655 1.655 1.655s1.656-.662 1.656-1.655v-2.65c0-.992-.663-1.655-1.656-1.655zM87.73 44.69c0-7.78-12.25-14.07-29.3-15.892l-11.258-9.105c-.33-.165-.662-.33-.993-.33h-9.105c-.662 0-1.159.33-1.49.993-.33.662-.165 1.158.166 1.655l4.966 6.622c-6.953.496-13.409 1.82-18.706 3.642l-2.98-7.45c-1.324-3.31-4.966-5.463-9.105-5.463-.993 0-1.655.662-1.655 1.656v24.665c0 .331 0 .497.166.663 1.655 7.118 14.07 12.746 30.46 14.402L31.61 74.156a1.504 1.504 0 0 0 0 1.655c.331.497.828.828 1.49.828h9.105c.497 0 .993-.166 1.159-.497l13.574-15.395C74.818 59.09 87.73 52.635 87.73 44.689zm-5.96-4.635c-3.973 3.145-7.946 3.973-9.766 2.814-.497-.33-.828-.828-.994-1.655-.33-1.49.497-3.808 1.821-5.96 3.973 1.49 6.953 3.146 8.94 4.801zM40.385 22.672h5.297l7.119 5.794c-1.49 0-2.98-.165-4.635-.165h-3.477zm1.159 50.656h-5.629l6.622-12.25c1.821.165 3.642.165 5.463.165 1.49 0 2.98 0 4.47-.165zM48 57.932c-21.19 0-35.426-6.621-36.42-12.58V22.837c1.987.496 3.643 1.655 4.305 3.31l3.476 8.774c.497.828 1.325 1.325 2.152.993 6.953-2.814 16.389-4.304 26.487-4.304 8.443 0 15.726.994 21.686 2.649-1.49 2.649-2.318 5.297-1.821 7.45.331 1.655 1.159 2.98 2.483 3.807 1.159.662 2.318.993 3.808.993 2.98 0 6.621-1.49 9.766-3.973.332.662.497 1.324.497 1.987C84.42 50.98 69.52 57.933 48 57.933z"/></svg>
