<?xml version="1.0" encoding="UTF-8" standalone="no"?>
<!-- Created with Inkscape (http://www.inkscape.org/) -->

<svg
   xmlns:dc="http://purl.org/dc/elements/1.1/"
   xmlns:cc="http://creativecommons.org/ns#"
   xmlns:rdf="http://www.w3.org/1999/02/22-rdf-syntax-ns#"
   xmlns:svg="http://www.w3.org/2000/svg"
   xmlns="http://www.w3.org/2000/svg"
   xmlns:sodipodi="http://sodipodi.sourceforge.net/DTD/sodipodi-0.dtd"
   xmlns:inkscape="http://www.inkscape.org/namespaces/inkscape"
   width="1200"
   height="933.48499"
   id="svg3062"
   version="1.1"
   inkscape:version="0.91 r13725"
   sodipodi:docname="20161015102817!Mastercard-logo.svg">
  <defs
     id="defs3064">
    <clipPath
       id="clipPath3944"
       clipPathUnits="userSpaceOnUse">
      <path
         id="path3946"
         d="M 0,612 792,612 792,0 0,0 0,612 z"
         inkscape:connector-curvature="0" />
    </clipPath>
    <clipPath
       id="clipPath3538"
       clipPathUnits="userSpaceOnUse">
      <path
         id="path3540"
         d="M 218.25,0 792,0 l 0,489.1 -573.75,0 0,-489.1 z"
         inkscape:connector-curvature="0" />
    </clipPath>
    <clipPath
       id="clipPath3518"
       clipPathUnits="userSpaceOnUse">
      <path
         id="path3520"
         d="M 218.25,0 792,0 l 0,489.1 -573.75,0 0,-489.1 z"
         inkscape:connector-curvature="0" />
    </clipPath>
  </defs>
  <sodipodi:namedview
     id="base"
     pagecolor="#ffffff"
     bordercolor="#666666"
     borderopacity="1.0"
     inkscape:pageopacity="0.0"
     inkscape:pageshadow="2"
     inkscape:zoom="0.35000001"
     inkscape:cx="1455.4322"
     inkscape:cy="185.09734"
     inkscape:document-units="px"
     inkscape:current-layer="layer1"
     showgrid="false"
     fit-margin-top="0"
     fit-margin-left="0"
     fit-margin-right="0"
     fit-margin-bottom="0"
     inkscape:window-width="1280"
     inkscape:window-height="706"
     inkscape:window-x="-8"
     inkscape:window-y="-8"
     inkscape:window-maximized="1" />
  <metadata
     id="metadata3067">
    <rdf:RDF>
      <cc:Work
         rdf:about="">
        <dc:format>image/svg+xml</dc:format>
        <dc:type
           rdf:resource="http://purl.org/dc/dcmitype/StillImage" />
        <dc:title />
      </cc:Work>
    </rdf:RDF>
  </metadata>
  <g
     inkscape:label="Layer 1"
     inkscape:groupmode="layer"
     id="layer1"
     transform="translate(1656.9594,-434.93107)">
    <g
       id="g5486"
       transform="matrix(18.862408,0,0,18.862408,-19155.272,-12316.066)">
      <g
         id="g5463">
        <g
           id="g3550"
           transform="matrix(1.25,0,0,-1.25,1175.9598,710.77105)">
          <path
             inkscape:connector-curvature="0"
             d="m 0,0 0,0.61 -0.159,0 -0.184,-0.419 -0.183,0.419 -0.16,0 0,-0.61 0.113,0 0,0.46 0.172,-0.397 0.117,0 0.172,0.398 L -0.112,0 0,0 z m -1.009,0 0,0.506 0.204,0 0,0.103 -0.52,0 0,-0.103 0.204,0 0,-0.506 0.112,0 z"
             style="fill:#0099df;fill-opacity:1;fill-rule:nonzero;stroke:none"
             id="path3552" />
        </g>
        <g
           id="g5456">
          <path
             id="path3554"
             style="fill:#6c6bbd;fill-opacity:1;fill-rule:nonzero;stroke:none"
             d="m 1153.3657,714.04505 -17.2025,0 0,-30.915 17.2025,0 0,30.915 z"
             inkscape:connector-curvature="0" />
          <g
             transform="matrix(1.25,0,0,-1.25,1137.2551,698.58818)"
             id="g3556">
            <path
               id="path3558"
               style="fill:#eb001b;fill-opacity:1;fill-rule:nonzero;stroke:none"
               d="m 0,0 c 0,5.017 2.349,9.486 6.007,12.366 -2.675,2.106 -6.051,3.363 -9.72,3.363 -8.686,0 -15.727,-7.042 -15.727,-15.729 0,-8.687 7.041,-15.729 15.727,-15.729 3.669,0 7.045,1.257 9.72,3.363 C 2.349,-9.486 0,-5.017 0,0"
               inkscape:connector-curvature="0" />
          </g>
          <g
             transform="matrix(1.25,0,0,-1.25,1176.5737,698.58818)"
             id="g3560">
            <path
               id="path3562"
               style="fill:#0099df;fill-opacity:1;fill-rule:nonzero;stroke:none"
               d="m 0,0 c 0,-8.687 -7.041,-15.729 -15.727,-15.729 -3.669,0 -7.045,1.257 -9.721,3.363 3.659,2.88 6.008,7.349 6.008,12.366 0,5.017 -2.349,9.486 -6.008,12.366 2.676,2.106 6.052,3.363 9.721,3.363 C -7.041,15.729 0,8.687 0,0"
               inkscape:connector-curvature="0" />
          </g>
        </g>
      </g>
      <g
         id="g5404">
        <g
           id="g3564"
           transform="matrix(1.25,0,0,-1.25,1159.1861,722.78068)">
          <path
             inkscape:connector-curvature="0"
             d="M 0,0 C 0.183,0 0.446,-0.035 0.647,-0.114 L 0.367,-0.97 c -0.192,0.079 -0.384,0.105 -0.568,0.105 -0.594,0 -0.891,-0.384 -0.891,-1.074 l 0,-2.342 -0.909,0 0,4.176 0.9,0 0,-0.507 C -0.865,-0.245 -0.524,0 0,0 m -3.358,-0.935 -1.485,0 0,-1.887 c 0,-0.419 0.148,-0.699 0.603,-0.699 0.236,0 0.533,0.079 0.803,0.236 l 0.262,-0.777 c -0.288,-0.201 -0.742,-0.324 -1.135,-0.324 -1.075,0 -1.45,0.577 -1.45,1.547 l 0,1.904 -0.848,0 0,0.83 0.848,0 0,1.267 0.917,0 0,-1.267 1.485,0 0,-0.83 z m -11.629,-0.891 c 0.097,0.603 0.463,1.014 1.11,1.014 0.585,0 0.961,-0.367 1.057,-1.014 l -2.167,0 z m 3.111,-0.367 C -11.885,-0.891 -12.689,0 -13.86,0 c -1.223,0 -2.079,-0.891 -2.079,-2.193 0,-1.327 0.891,-2.192 2.141,-2.192 0.629,0 1.205,0.157 1.712,0.585 l -0.446,0.673 c -0.349,-0.28 -0.795,-0.437 -1.214,-0.437 -0.585,0 -1.118,0.271 -1.249,1.022 l 3.101,0 c 0.009,0.114 0.018,0.227 0.018,0.349 m 3.992,1.022 c -0.253,0.158 -0.768,0.359 -1.301,0.359 -0.498,0 -0.795,-0.184 -0.795,-0.49 0,-0.279 0.314,-0.358 0.707,-0.41 l 0.428,-0.061 c 0.909,-0.132 1.459,-0.516 1.459,-1.25 0,-0.795 -0.699,-1.363 -1.904,-1.363 -0.682,0 -1.311,0.175 -1.809,0.542 l 0.428,0.708 c 0.306,-0.236 0.761,-0.437 1.39,-0.437 0.62,0 0.952,0.183 0.952,0.507 0,0.235 -0.236,0.367 -0.734,0.436 l -0.428,0.061 c -0.935,0.132 -1.442,0.551 -1.442,1.232 0,0.83 0.682,1.337 1.739,1.337 0.664,0 1.267,-0.149 1.703,-0.437 L -7.884,-1.171 z M 3.321,-0.863 C 3.134,-0.863 2.961,-0.896 2.8,-0.961 2.64,-1.027 2.501,-1.119 2.384,-1.237 2.267,-1.355 2.175,-1.497 2.108,-1.662 c -0.067,-0.165 -0.1,-0.347 -0.1,-0.545 0,-0.199 0.033,-0.38 0.1,-0.545 0.067,-0.165 0.159,-0.307 0.276,-0.425 0.117,-0.118 0.256,-0.21 0.416,-0.276 0.161,-0.066 0.334,-0.098 0.521,-0.098 0.187,0 0.361,0.032 0.521,0.098 0.161,0.066 0.301,0.158 0.418,0.276 0.119,0.118 0.211,0.26 0.279,0.425 0.067,0.165 0.1,0.346 0.1,0.545 0,0.198 -0.033,0.38 -0.1,0.545 -0.068,0.165 -0.16,0.307 -0.279,0.425 -0.117,0.118 -0.257,0.21 -0.418,0.276 -0.16,0.065 -0.334,0.098 -0.521,0.098 M 3.321,0 C 3.645,0 3.945,-0.056 4.221,-0.169 4.497,-0.281 4.736,-0.436 4.937,-0.633 5.139,-0.83 5.296,-1.063 5.41,-1.331 5.524,-1.6 5.581,-1.892 5.581,-2.207 5.581,-2.522 5.524,-2.814 5.41,-3.083 5.296,-3.351 5.139,-3.585 4.937,-3.782 4.736,-3.979 4.497,-4.133 4.221,-4.246 3.945,-4.358 3.645,-4.414 3.321,-4.414 c -0.324,0 -0.624,0.056 -0.9,0.168 -0.276,0.113 -0.513,0.267 -0.713,0.464 -0.2,0.197 -0.357,0.431 -0.471,0.699 -0.114,0.269 -0.171,0.561 -0.171,0.876 0,0.315 0.057,0.607 0.171,0.876 0.114,0.268 0.271,0.501 0.471,0.698 0.2,0.197 0.437,0.352 0.713,0.464 C 2.697,-0.056 2.997,0 3.321,0 m -23.616,-2.193 c 0,0.734 0.481,1.337 1.267,1.337 0.751,0 1.258,-0.577 1.258,-1.337 0,-0.76 -0.507,-1.336 -1.258,-1.336 -0.786,0 -1.267,0.602 -1.267,1.336 m 3.381,0 0,2.088 -0.908,0 0,-0.507 C -18.111,-0.236 -18.547,0 -19.141,0 c -1.171,0 -2.088,-0.917 -2.088,-2.193 0,-1.275 0.917,-2.193 2.088,-2.193 0.594,0 1.03,0.236 1.319,0.612 l 0,-0.507 0.908,0 0,2.088 z m -5.119,-2.088 0,2.621 c 0,0.987 -0.629,1.651 -1.642,1.66 -0.533,0.009 -1.084,-0.157 -1.468,-0.743 C -25.431,-0.28 -25.886,0 -26.524,0 c -0.445,0 -0.882,-0.131 -1.223,-0.62 l 0,0.515 -0.908,0 0,-4.176 0.917,0 0,2.315 c 0,0.725 0.402,1.11 1.022,1.11 0.603,0 0.909,-0.393 0.909,-1.101 l 0,-2.324 0.917,0 0,2.315 c 0,0.725 0.42,1.11 1.022,1.11 0.621,0 0.918,-0.393 0.918,-1.101 l 0,-2.324 0.917,0 z"
             style="fill:#231f20;fill-opacity:1;fill-rule:nonzero;stroke:none"
             id="path3566" />
        </g>
        <g
           id="g3568"
           transform="matrix(1.25,0,0,-1.25,1167.4397,727.73918)">
          <path
             inkscape:connector-curvature="0"
             d="m 0,0 0,-0.103 0.095,0 c 0.021,0 0.039,0.005 0.051,0.013 0.013,0.008 0.02,0.022 0.02,0.039 0,0.017 -0.007,0.03 -0.02,0.038 C 0.134,-0.004 0.116,0 0.095,0 L 0,0 z M 0.096,0.072 C 0.145,0.072 0.183,0.061 0.21,0.039 0.237,0.017 0.25,-0.013 0.25,-0.051 0.25,-0.083 0.24,-0.109 0.218,-0.13 0.197,-0.15 0.166,-0.163 0.127,-0.168 l 0.126,-0.145 -0.098,0 -0.117,0.144 -0.038,0 0,-0.144 -0.082,0 0,0.385 0.178,0 z M 0.071,-0.445 c 0.045,0 0.087,0.008 0.125,0.025 0.039,0.017 0.073,0.04 0.102,0.069 0.029,0.029 0.052,0.063 0.069,0.103 0.016,0.039 0.025,0.081 0.025,0.126 0,0.045 -0.009,0.087 -0.025,0.126 C 0.35,0.043 0.327,0.078 0.298,0.107 0.269,0.136 0.235,0.159 0.196,0.175 0.158,0.192 0.116,0.2 0.071,0.2 0.026,0.2 -0.017,0.192 -0.056,0.175 -0.096,0.159 -0.131,0.136 -0.16,0.107 -0.189,0.078 -0.212,0.043 -0.228,0.004 c -0.017,-0.039 -0.025,-0.081 -0.025,-0.126 0,-0.045 0.008,-0.087 0.025,-0.126 0.016,-0.04 0.039,-0.074 0.068,-0.103 0.029,-0.029 0.064,-0.052 0.104,-0.069 0.039,-0.017 0.082,-0.025 0.127,-0.025 m 0,0.738 C 0.13,0.293 0.184,0.282 0.235,0.26 0.287,0.239 0.331,0.209 0.37,0.171 0.408,0.134 0.438,0.09 0.46,0.039 0.482,-0.011 0.493,-0.065 0.493,-0.122 0.493,-0.179 0.482,-0.233 0.46,-0.283 0.438,-0.333 0.408,-0.377 0.37,-0.414 0.331,-0.452 0.287,-0.482 0.235,-0.504 0.184,-0.526 0.13,-0.537 0.071,-0.537 c -0.06,0 -0.115,0.011 -0.167,0.033 -0.052,0.022 -0.097,0.052 -0.135,0.09 -0.038,0.037 -0.068,0.081 -0.09,0.131 -0.022,0.05 -0.033,0.104 -0.033,0.161 0,0.057 0.011,0.111 0.033,0.161 0.022,0.051 0.052,0.095 0.09,0.132 0.038,0.038 0.083,0.068 0.135,0.089 0.052,0.022 0.107,0.033 0.167,0.033"
             style="fill:#231f20;fill-opacity:1;fill-rule:nonzero;stroke:none"
             id="path3570" />
        </g>
      </g>
    </g>
    <g
       id="g5519"
       transform="matrix(18.862438,0,0,18.862438,-18766.903,-12356.607)">
      <g
         id="g5509">
        <g
           id="g3620"
           transform="matrix(1.25,0,0,-1.25,1248.4591,710.77105)">
          <path
             inkscape:connector-curvature="0"
             d="m 0,0 0,0.61 -0.159,0 -0.184,-0.419 -0.183,0.419 -0.16,0 0,-0.61 0.113,0 0,0.46 0.172,-0.397 0.117,0 0.172,0.398 L -0.112,0 0,0 z m -1.009,0 0,0.506 0.204,0 0,0.103 -0.52,0 0,-0.103 0.204,0 0,-0.506 0.112,0 z"
             style="fill:#0099df;fill-opacity:1;fill-rule:nonzero;stroke:none"
             id="path3622" />
        </g>
        <g
           id="g5502">
          <path
             id="path3624"
             style="fill:#2271ce;fill-opacity:1;fill-rule:nonzero;stroke:none"
             d="m 1225.8657,714.04505 -17.2025,0 0,-30.915 17.2025,0 0,30.915 z"
             inkscape:connector-curvature="0" />
          <g
             transform="matrix(1.25,0,0,-1.25,1209.7545,698.58818)"
             id="g3626">
            <path
               id="path3628"
               style="fill:#005eb6;fill-opacity:1;fill-rule:nonzero;stroke:none"
               d="m 0,0 c 0,5.017 2.349,9.486 6.007,12.366 -2.675,2.106 -6.051,3.363 -9.72,3.363 -8.686,0 -15.727,-7.042 -15.727,-15.729 0,-8.687 7.041,-15.729 15.727,-15.729 3.669,0 7.045,1.257 9.72,3.363 C 2.349,-9.486 0,-5.017 0,0"
               inkscape:connector-curvature="0" />
          </g>
          <g
             transform="matrix(1.25,0,0,-1.25,1249.073,698.58818)"
             id="g3630">
            <path
               id="path3632"
               style="fill:#0099df;fill-opacity:1;fill-rule:nonzero;stroke:none"
               d="m 0,0 c 0,-8.687 -7.041,-15.729 -15.727,-15.729 -3.669,0 -7.045,1.257 -9.72,3.363 3.658,2.88 6.007,7.349 6.007,12.366 0,5.017 -2.349,9.486 -6.007,12.366 2.675,2.106 6.051,3.363 9.72,3.363 C -7.041,15.729 0,8.687 0,0"
               inkscape:connector-curvature="0" />
          </g>
        </g>
      </g>
      <g
         id="g5423">
        <g
           id="g3634"
           transform="matrix(1.25,0,0,-1.25,1232.0172,727.73918)">
          <path
             inkscape:connector-curvature="0"
             d="m 0,0 0,-0.103 0.095,0 c 0.021,0 0.039,0.005 0.051,0.013 0.013,0.008 0.02,0.022 0.02,0.039 0,0.017 -0.007,0.03 -0.02,0.038 C 0.134,-0.004 0.116,0 0.095,0 L 0,0 z M 0.096,0.072 C 0.145,0.072 0.183,0.061 0.21,0.039 0.237,0.017 0.25,-0.013 0.25,-0.051 0.25,-0.083 0.24,-0.109 0.218,-0.13 0.197,-0.15 0.166,-0.163 0.127,-0.168 l 0.126,-0.145 -0.098,0 -0.117,0.144 -0.038,0 0,-0.144 -0.082,0 0,0.385 0.178,0 z M 0.071,-0.445 c 0.045,0 0.087,0.008 0.125,0.025 0.039,0.017 0.073,0.04 0.102,0.069 0.029,0.029 0.052,0.063 0.069,0.103 0.016,0.039 0.025,0.081 0.025,0.126 0,0.045 -0.009,0.087 -0.025,0.126 C 0.35,0.043 0.327,0.078 0.298,0.107 0.269,0.136 0.235,0.159 0.196,0.175 0.158,0.192 0.116,0.2 0.071,0.2 0.026,0.2 -0.017,0.192 -0.057,0.175 -0.096,0.159 -0.131,0.136 -0.16,0.107 -0.189,0.078 -0.212,0.043 -0.228,0.004 c -0.017,-0.039 -0.025,-0.081 -0.025,-0.126 0,-0.045 0.008,-0.087 0.025,-0.126 0.016,-0.04 0.039,-0.074 0.068,-0.103 0.029,-0.029 0.064,-0.052 0.103,-0.069 0.04,-0.017 0.083,-0.025 0.128,-0.025 m 0,0.738 C 0.129,0.293 0.184,0.282 0.235,0.26 0.287,0.239 0.331,0.209 0.37,0.171 0.408,0.134 0.438,0.09 0.46,0.039 0.482,-0.011 0.493,-0.065 0.493,-0.122 0.493,-0.179 0.482,-0.233 0.46,-0.283 0.438,-0.333 0.408,-0.377 0.37,-0.414 0.331,-0.452 0.287,-0.482 0.235,-0.504 0.184,-0.526 0.129,-0.537 0.071,-0.537 c -0.06,0 -0.115,0.011 -0.167,0.033 -0.052,0.022 -0.097,0.052 -0.135,0.09 -0.038,0.037 -0.068,0.081 -0.09,0.131 -0.022,0.05 -0.033,0.104 -0.033,0.161 0,0.057 0.011,0.111 0.033,0.161 0.022,0.051 0.052,0.095 0.09,0.132 0.038,0.038 0.083,0.068 0.135,0.089 0.052,0.022 0.107,0.033 0.167,0.033"
             style="fill:#242021;fill-opacity:1;fill-rule:nonzero;stroke:none"
             id="path3636" />
        </g>
        <g
           id="g5410">
          <g
             transform="matrix(1.25,0,0,-1.25,1230.6085,723.32355)"
             id="g3638">
            <path
               id="path3640"
               style="fill:#231f20;fill-opacity:1;fill-rule:nonzero;stroke:none"
               d="m 0,0 c -0.437,0.288 -1.04,0.437 -1.703,0.437 -1.058,0 -1.739,-0.507 -1.739,-1.337 0,-0.681 0.507,-1.1 1.441,-1.232 l 0.429,-0.061 c 0.497,-0.07 0.733,-0.201 0.733,-0.436 0,-0.324 -0.332,-0.507 -0.952,-0.507 -0.629,0 -1.083,0.201 -1.389,0.437 l -0.428,-0.708 c 0.498,-0.367 1.127,-0.542 1.808,-0.542 1.206,0 1.905,0.568 1.905,1.363 0,0.734 -0.55,1.118 -1.459,1.25 l -0.428,0.061 c -0.393,0.052 -0.708,0.131 -0.708,0.41 0,0.306 0.297,0.489 0.795,0.489 0.533,0 1.049,-0.201 1.302,-0.358 L 0,0 z"
               inkscape:connector-curvature="0" />
          </g>
          <g
             transform="matrix(1.25,0,0,-1.25,1203.7883,725.5183)"
             id="g3642">
            <path
               id="path3644"
               style="fill:#231f20;fill-opacity:1;fill-rule:nonzero;stroke:none"
               d="m 0,0 c 0,-1.267 0.882,-2.193 2.228,-2.193 0.629,0 1.048,0.14 1.502,0.498 L 3.293,-0.961 C 2.953,-1.206 2.595,-1.337 2.201,-1.337 1.476,-1.328 0.944,-0.804 0.944,0 c 0,0.804 0.532,1.328 1.257,1.337 0.394,0 0.752,-0.131 1.092,-0.376 L 3.73,1.695 C 3.276,2.053 2.857,2.193 2.228,2.193 0.882,2.193 0,1.267 0,0"
               inkscape:connector-curvature="0" />
          </g>
          <g
             transform="matrix(1.25,0,0,-1.25,1214.7363,722.77742)"
             id="g3646">
            <path
               id="path3648"
               style="fill:#231f20;fill-opacity:1;fill-rule:nonzero;stroke:none"
               d="m 0,0 c -0.524,0 -0.865,-0.245 -1.101,-0.612 l 0,0.507 -0.899,0 0,-4.176 0.908,0 0,2.342 c 0,0.69 0.297,1.074 0.891,1.074 0.184,0 0.376,-0.026 0.568,-0.105 l 0.279,0.856 C 0.446,-0.035 0.183,0 0,0"
               inkscape:connector-curvature="0" />
          </g>
          <g
             transform="matrix(1.25,0,0,-1.25,1218.9541,722.77742)"
             id="g3650">
            <path
               id="path3652"
               style="fill:#231f20;fill-opacity:1;fill-rule:nonzero;stroke:none"
               d="m 0,0 c -0.524,0 -0.865,-0.245 -1.101,-0.612 l 0,0.507 -0.899,0 0,-4.176 0.908,0 0,2.342 c 0,0.69 0.297,1.074 0.891,1.074 0.184,0 0.376,-0.026 0.568,-0.105 l 0.279,0.856 C 0.446,-0.035 0.183,0 0,0"
               inkscape:connector-curvature="0" />
          </g>
          <path
             id="path3654"
             style="fill:#231f20;fill-opacity:1;fill-rule:nonzero;stroke:none"
             d="m 1210.997,728.1263 -1.1425,0 0,-5.2125 1.1425,0 0,5.2125 z m -0.5775,-7.8175 c 0.1125,0 0.2175,0.02 0.3162,0.0625 0.098,0.0412 0.1825,0.0987 0.255,0.17125 0.072,0.0725 0.13,0.1575 0.1713,0.255 0.043,0.0987 0.062,0.20375 0.062,0.31625 0,0.1125 -0.02,0.2175 -0.062,0.315 -0.041,0.0987 -0.099,0.1825 -0.1713,0.25375 -0.072,0.07 -0.1575,0.12625 -0.255,0.165 -0.099,0.04 -0.2037,0.06 -0.3162,0.06 -0.1125,0 -0.2175,-0.02 -0.315,-0.06 -0.099,-0.0387 -0.1825,-0.095 -0.2538,-0.165 -0.07,-0.0712 -0.125,-0.155 -0.165,-0.25375 -0.04,-0.0975 -0.06,-0.2025 -0.06,-0.315 0,-0.1125 0.02,-0.2175 0.06,-0.31625 0.04,-0.0975 0.095,-0.1825 0.165,-0.255 0.071,-0.0725 0.155,-0.13 0.2538,-0.17125 0.098,-0.0425 0.2025,-0.0625 0.315,-0.0625"
             inkscape:connector-curvature="0" />
          <g
             transform="matrix(1.25,0,0,-1.25,1225.3951,725.9178)"
             id="g3656">
            <path
               id="path3658"
               style="fill:#231f20;fill-opacity:1;fill-rule:nonzero;stroke:none"
               d="m 0,0 c 0,-0.331 -0.055,-0.615 -0.163,-0.853 -0.109,-0.238 -0.252,-0.432 -0.43,-0.583 -0.178,-0.151 -0.381,-0.262 -0.61,-0.333 -0.23,-0.071 -0.465,-0.107 -0.705,-0.107 -0.241,0 -0.476,0.036 -0.705,0.107 -0.23,0.071 -0.434,0.182 -0.613,0.333 -0.179,0.151 -0.322,0.345 -0.43,0.583 -0.107,0.238 -0.161,0.522 -0.161,0.853 l 0,2.403 0.903,0 0,-2.32 c 0,-0.2 0.026,-0.371 0.077,-0.512 0.052,-0.14 0.123,-0.254 0.213,-0.341 0.09,-0.087 0.197,-0.151 0.32,-0.19 0.123,-0.039 0.255,-0.059 0.396,-0.059 0.14,0 0.272,0.02 0.395,0.059 0.123,0.039 0.23,0.103 0.32,0.19 0.091,0.087 0.161,0.201 0.213,0.341 0.052,0.141 0.077,0.312 0.077,0.512 l 0,2.32 L 0,2.403 0,0 z"
               inkscape:connector-curvature="0" />
          </g>
        </g>
      </g>
    </g>
    <g
       id="g5473"
       transform="matrix(18.862379,0,0,18.862379,-21277.291,-12371.246)">
      <g
         transform="matrix(1.25,0,0,-1.25,1102.5407,727.74493)"
         id="g3806">
        <path
           id="path3808"
           style="fill:#231f20;fill-opacity:1;fill-rule:nonzero;stroke:none"
           d="m 0,0 0,-0.103 0.095,0 c 0.021,0 0.039,0.005 0.052,0.013 0.012,0.008 0.019,0.022 0.019,0.039 0,0.017 -0.007,0.03 -0.019,0.038 C 0.134,-0.004 0.116,0 0.095,0 L 0,0 z M 0.096,0.072 C 0.145,0.072 0.183,0.061 0.21,0.039 0.237,0.017 0.25,-0.013 0.25,-0.051 0.25,-0.083 0.24,-0.109 0.218,-0.13 0.197,-0.15 0.167,-0.163 0.127,-0.168 l 0.126,-0.145 -0.098,0 -0.117,0.144 -0.038,0 0,-0.144 -0.082,0 0,0.385 0.178,0 z M 0.071,-0.446 c 0.045,0 0.087,0.009 0.125,0.026 0.039,0.017 0.073,0.04 0.102,0.069 0.029,0.029 0.052,0.063 0.069,0.103 0.016,0.039 0.025,0.081 0.025,0.126 0,0.045 -0.009,0.087 -0.025,0.126 C 0.35,0.043 0.327,0.078 0.298,0.107 0.269,0.136 0.235,0.159 0.196,0.176 0.158,0.192 0.116,0.2 0.071,0.2 0.026,0.2 -0.017,0.192 -0.056,0.176 -0.096,0.159 -0.131,0.136 -0.16,0.107 -0.189,0.078 -0.212,0.043 -0.228,0.004 c -0.017,-0.039 -0.025,-0.081 -0.025,-0.126 0,-0.045 0.008,-0.087 0.025,-0.126 0.016,-0.04 0.039,-0.074 0.068,-0.103 0.029,-0.029 0.064,-0.052 0.104,-0.069 0.039,-0.017 0.082,-0.026 0.127,-0.026 m 0,0.739 C 0.13,0.293 0.184,0.282 0.236,0.26 0.287,0.239 0.331,0.209 0.37,0.171 0.408,0.134 0.438,0.09 0.46,0.039 0.482,-0.011 0.493,-0.065 0.493,-0.122 0.493,-0.179 0.482,-0.233 0.46,-0.283 0.438,-0.333 0.408,-0.377 0.37,-0.415 0.331,-0.452 0.287,-0.482 0.236,-0.504 0.184,-0.526 0.13,-0.537 0.071,-0.537 c -0.06,0 -0.115,0.011 -0.167,0.033 -0.052,0.022 -0.097,0.052 -0.135,0.089 -0.038,0.038 -0.068,0.082 -0.09,0.132 -0.022,0.05 -0.033,0.104 -0.033,0.161 0,0.057 0.011,0.111 0.033,0.161 0.022,0.051 0.052,0.095 0.09,0.132 0.038,0.038 0.083,0.068 0.135,0.089 0.052,0.022 0.107,0.033 0.167,0.033 M -38.89,1.776 c 0,0.734 0.481,1.337 1.267,1.337 0.751,0 1.258,-0.577 1.258,-1.337 0,-0.76 -0.507,-1.337 -1.258,-1.337 -0.786,0 -1.267,0.603 -1.267,1.337 m 3.381,0 0,2.088 -0.908,0 0,-0.507 c -0.288,0.376 -0.725,0.612 -1.319,0.612 -1.171,0 -2.089,-0.918 -2.089,-2.193 0,-1.276 0.918,-2.193 2.089,-2.193 0.594,0 1.031,0.236 1.319,0.612 l 0,-0.507 0.908,0 0,2.088 z m 30.684,0 c 0,0.734 0.481,1.337 1.267,1.337 0.752,0 1.258,-0.577 1.258,-1.337 0,-0.76 -0.506,-1.337 -1.258,-1.337 -0.786,0 -1.267,0.603 -1.267,1.337 m 3.382,0 0,3.765 -0.909,0 0,-2.184 c -0.288,0.376 -0.725,0.612 -1.319,0.612 -1.171,0 -2.089,-0.918 -2.089,-2.193 0,-1.276 0.918,-2.193 2.089,-2.193 0.594,0 1.031,0.236 1.319,0.612 l 0,-0.507 0.909,0 0,2.088 z m -22.795,1.38 c 0.585,0 0.961,-0.367 1.057,-1.013 l -2.167,0 c 0.097,0.603 0.463,1.013 1.11,1.013 m 0.018,0.813 c -1.224,0 -2.08,-0.891 -2.08,-2.193 0,-1.328 0.891,-2.193 2.141,-2.193 0.629,0 1.205,0.157 1.712,0.585 l -0.445,0.673 c -0.35,-0.279 -0.796,-0.437 -1.215,-0.437 -0.585,0 -1.118,0.271 -1.249,1.023 l 3.101,0 c 0.009,0.113 0.018,0.227 0.018,0.349 -0.009,1.302 -0.813,2.193 -1.983,2.193 m 10.964,-2.193 c 0,0.734 0.481,1.337 1.267,1.337 0.751,0 1.258,-0.577 1.258,-1.337 0,-0.76 -0.507,-1.337 -1.258,-1.337 -0.786,0 -1.267,0.603 -1.267,1.337 m 3.381,0 0,2.088 -0.908,0 0,-0.507 c -0.289,0.376 -0.725,0.612 -1.319,0.612 -1.171,0 -2.089,-0.918 -2.089,-2.193 0,-1.276 0.918,-2.193 2.089,-2.193 0.594,0 1.03,0.236 1.319,0.612 l 0,-0.507 0.908,0 0,2.088 z m -8.509,0 c 0,-1.267 0.882,-2.193 2.228,-2.193 0.629,0 1.048,0.14 1.502,0.498 l -0.436,0.734 c -0.341,-0.245 -0.699,-0.376 -1.093,-0.376 -0.725,0.009 -1.258,0.533 -1.258,1.337 0,0.804 0.533,1.328 1.258,1.337 0.394,0 0.752,-0.131 1.093,-0.376 l 0.436,0.734 c -0.454,0.358 -0.873,0.498 -1.502,0.498 -1.346,0 -2.228,-0.926 -2.228,-2.193 m 11.707,2.193 c -0.524,0 -0.865,-0.245 -1.101,-0.612 l 0,0.507 -0.9,0 0,-4.176 0.909,0 0,2.341 c 0,0.691 0.297,1.075 0.891,1.075 0.184,0 0.376,-0.026 0.568,-0.105 l 0.28,0.856 C -6.231,3.934 -6.493,3.969 -6.677,3.969 M -31.018,3.532 c -0.437,0.288 -1.039,0.437 -1.703,0.437 -1.058,0 -1.739,-0.507 -1.739,-1.337 0,-0.681 0.507,-1.101 1.441,-1.232 l 0.429,-0.061 c 0.498,-0.07 0.733,-0.201 0.733,-0.437 0,-0.323 -0.332,-0.507 -0.952,-0.507 -0.629,0 -1.083,0.201 -1.389,0.437 l -0.428,-0.707 c 0.498,-0.367 1.127,-0.542 1.808,-0.542 1.206,0 1.905,0.568 1.905,1.363 0,0.734 -0.55,1.118 -1.459,1.249 L -32.8,2.257 c -0.393,0.052 -0.708,0.13 -0.708,0.41 0,0.306 0.297,0.489 0.795,0.489 0.533,0 1.049,-0.201 1.302,-0.358 l 0.393,0.734 z m 11.716,0.437 c -0.524,0 -0.865,-0.245 -1.1,-0.612 l 0,0.507 -0.9,0 0,-4.176 0.908,0 0,2.341 c 0,0.691 0.297,1.075 0.891,1.075 0.184,0 0.376,-0.026 0.568,-0.105 l 0.28,0.856 c -0.201,0.079 -0.463,0.114 -0.647,0.114 m -7.749,-0.105 -1.485,0 0,1.267 -0.918,0 0,-1.267 -0.847,0 0,-0.83 0.847,0 0,-1.905 c 0,-0.969 0.376,-1.546 1.45,-1.546 0.394,0 0.848,0.122 1.136,0.323 l -0.262,0.778 c -0.271,-0.157 -0.568,-0.236 -0.804,-0.236 -0.454,0 -0.602,0.28 -0.602,0.699 l 0,1.887 1.485,0 0,0.83 z m -13.577,-4.176 0,2.621 c 0,0.987 -0.629,1.651 -1.643,1.66 -0.533,0.009 -1.083,-0.157 -1.468,-0.743 -0.288,0.463 -0.742,0.743 -1.38,0.743 -0.446,0 -0.882,-0.131 -1.223,-0.62 l 0,0.515 -0.909,0 0,-4.176 0.917,0 0,2.315 c 0,0.725 0.402,1.11 1.023,1.11 0.603,0 0.908,-0.393 0.908,-1.101 l 0,-2.324 0.918,0 0,2.315 c 0,0.725 0.419,1.11 1.022,1.11 0.62,0 0.917,-0.393 0.917,-1.101 l 0,-2.324 0.918,0 z"
           inkscape:connector-curvature="0" />
      </g>
      <g
         id="g5446">
        <g
           id="g3816"
           transform="matrix(1.25,0,0,-1.25,1103.1881,710.77105)">
          <path
             inkscape:connector-curvature="0"
             d="m 0,0 0,0.61 -0.159,0 -0.184,-0.419 -0.183,0.419 -0.16,0 0,-0.61 0.113,0 0,0.46 0.172,-0.397 0.117,0 0.172,0.398 L -0.112,0 0,0 z m -1.009,0 0,0.506 0.204,0 0,0.103 -0.52,0 0,-0.103 0.204,0 0,-0.506 0.112,0 z"
             style="fill:#f79410;fill-opacity:1;fill-rule:nonzero;stroke:none"
             id="path3818" />
        </g>
        <g
           id="g5439">
          <path
             id="path3810"
             style="fill:#ff5f00;fill-opacity:1;fill-rule:nonzero;stroke:none"
             d="m 1080.5945,714.04505 -17.2025,0 0,-30.915 17.2025,0 0,30.915 z"
             inkscape:connector-curvature="0" />
          <g
             transform="matrix(1.25,0,0,-1.25,1064.4833,698.58818)"
             id="g3812">
            <path
               id="path3814"
               style="fill:#eb001b;fill-opacity:1;fill-rule:nonzero;stroke:none"
               d="m 0,0 c 0,5.017 2.349,9.486 6.007,12.366 -2.675,2.106 -6.051,3.363 -9.72,3.363 -8.686,0 -15.727,-7.042 -15.727,-15.729 0,-8.687 7.041,-15.729 15.727,-15.729 3.669,0 7.045,1.257 9.72,3.363 C 2.349,-9.486 0,-5.017 0,0"
               inkscape:connector-curvature="0" />
          </g>
          <g
             transform="matrix(1.25,0,0,-1.25,1103.802,698.58818)"
             id="g3820">
            <path
               id="path3822"
               style="fill:#f79e1b;fill-opacity:1;fill-rule:nonzero;stroke:none"
               d="m 0,0 c 0,-8.687 -7.041,-15.729 -15.727,-15.729 -3.669,0 -7.045,1.257 -9.721,3.363 3.659,2.88 6.008,7.349 6.008,12.366 0,5.017 -2.349,9.486 -6.008,12.366 2.676,2.106 6.052,3.363 9.721,3.363 C -7.041,15.729 0,8.687 0,0"
               inkscape:connector-curvature="0" />
          </g>
        </g>
      </g>
    </g>
  </g>
</svg>
